<svg width="800" height="600" viewBox="0 0 800 600" fill="none" xmlns="http://www.w3.org/2000/svg">
  <rect width="800" height="600" fill="#F1E5D7"/>
  <path d="M190 410C190 357.487 232.487 315 285 315H515C567.513 315 610 357.487 610 410V430C610 475.228 573.228 512 528 512H272C226.772 512 190 475.228 190 430V410Z" fill="#1C1915" fill-opacity="0.12"/>
  <path d="M260 310C260 285.147 280.147 265 305 265H495C519.853 265 540 285.147 540 310V335H260V310Z" fill="#1C1915"/>
  <rect x="380" y="180" width="40" height="140" rx="20" fill="#D39B5F"/>
  <circle cx="180" cy="160" r="70" fill="#D39B5F" fill-opacity="0.35"/>
  <circle cx="650" cy="210" r="90" fill="#1C1915" fill-opacity="0.08"/>
  <path d="M560 230C560 203.49 581.49 182 608 182H664C690.51 182 712 203.49 712 230V250C712 276.51 690.51 298 664 298H608C581.49 298 560 276.51 560 250V230Z" fill="#F7F2EB"/>
  <path d="M604 210H646C659.255 210 670 220.745 670 234V246C670 259.255 659.255 270 646 270H604V210Z" fill="#D39B5F"/>
</svg>
